<svg width="75" height="26" viewBox="0 0 75 26" fill="none" xmlns="http://www.w3.org/2000/svg">
<rect x="0.158203" y="0.763672" width="74.0968" height="24.294" rx="5.3997" fill="#F7C5BA"/>
<path d="M15.2614 8.92347V9.86887H12.834V17.8281H11.6714V9.86887H9.23125V8.92347H15.2614ZM17.855 11.9641C18.0595 11.5638 18.349 11.2529 18.7238 11.0315C19.1071 10.81 19.5712 10.6993 20.1163 10.6993V11.9002H19.8097C18.5066 11.9002 17.855 12.6071 17.855 14.021V17.8281H16.6925V10.827H17.855V11.9641ZM27.8462 14.0593C27.8462 14.2807 27.8335 14.515 27.8079 14.762H22.2121C22.2547 15.4518 22.489 15.9927 22.9148 16.3845C23.3492 16.7677 23.873 16.9594 24.4862 16.9594C24.9887 16.9594 25.4061 16.8444 25.7382 16.6144C26.0789 16.376 26.3174 16.0608 26.4537 15.669H27.7057C27.5183 16.3419 27.1436 16.8912 26.5814 17.3171C26.0193 17.7344 25.3209 17.9431 24.4862 17.9431C23.8219 17.9431 23.2257 17.7941 22.6976 17.496C22.1781 17.1979 21.7693 16.7763 21.4712 16.2312C21.1731 15.6776 21.024 15.0388 21.024 14.3148C21.024 13.5909 21.1688 12.9563 21.4584 12.4112C21.748 11.8661 22.1525 11.4488 22.6721 11.1592C23.2001 10.8611 23.8049 10.7121 24.4862 10.7121C25.1506 10.7121 25.7382 10.8569 26.2493 11.1464C26.7603 11.436 27.1521 11.8363 27.4246 12.3474C27.7057 12.8499 27.8462 13.4205 27.8462 14.0593ZM26.6453 13.8166C26.6453 13.3737 26.5474 12.9947 26.3515 12.6795C26.1556 12.3559 25.8873 12.1131 25.5466 11.9513C25.2144 11.781 24.8439 11.6958 24.4351 11.6958C23.8474 11.6958 23.3449 11.8832 22.9276 12.2579C22.5188 12.6327 22.2845 13.1522 22.2249 13.8166H26.6453ZM32.7919 10.6993C33.6436 10.6993 34.3335 10.9591 34.8616 11.4786C35.3896 11.9896 35.6537 12.7306 35.6537 13.7016V17.8281H34.5039V13.8677C34.5039 13.1693 34.3293 12.6369 33.9801 12.2707C33.6309 11.8959 33.1539 11.7086 32.5492 11.7086C31.9359 11.7086 31.4462 11.9002 31.08 12.2835C30.7223 12.6667 30.5434 13.2246 30.5434 13.9571V17.8281H29.3808V10.827H30.5434V11.8236C30.7734 11.4658 31.0842 11.189 31.476 10.9931C31.8763 10.7972 32.315 10.6993 32.7919 10.6993ZM37.1184 14.302C37.1184 13.5866 37.2632 12.9606 37.5528 12.424C37.8423 11.8789 38.2384 11.4573 38.7409 11.1592C39.2519 10.8611 39.8226 10.7121 40.4528 10.7121C40.9979 10.7121 41.5047 10.8398 41.9731 11.0953C42.4416 11.3423 42.7993 11.6702 43.0463 12.0791V8.37411H44.2217V17.8281H43.0463V16.5122C42.8163 16.9296 42.4757 17.2745 42.0242 17.5471C41.5728 17.8111 41.0448 17.9431 40.4401 17.9431C39.8183 17.9431 39.2519 17.7898 38.7409 17.4832C38.2384 17.1766 37.8423 16.7464 37.5528 16.1928C37.2632 15.6392 37.1184 15.009 37.1184 14.302ZM43.0463 14.3148C43.0463 13.7867 42.9398 13.3268 42.7269 12.935C42.514 12.5432 42.2244 12.2451 41.8582 12.0407C41.5004 11.8278 41.1044 11.7213 40.67 11.7213C40.2357 11.7213 39.8396 11.8236 39.4819 12.028C39.1242 12.2324 38.8388 12.5305 38.6259 12.9223C38.413 13.314 38.3065 13.774 38.3065 14.302C38.3065 14.8386 38.413 15.3071 38.6259 15.7074C38.8388 16.0991 39.1242 16.4015 39.4819 16.6144C39.8396 16.8188 40.2357 16.9211 40.67 16.9211C41.1044 16.9211 41.5004 16.8188 41.8582 16.6144C42.2244 16.4015 42.514 16.0991 42.7269 15.7074C42.9398 15.3071 43.0463 14.8429 43.0463 14.3148ZM46.7868 9.69001C46.5653 9.69001 46.378 9.61336 46.2247 9.46005C46.0713 9.30674 45.9947 9.11936 45.9947 8.89792C45.9947 8.67647 46.0713 8.4891 46.2247 8.33579C46.378 8.18248 46.5653 8.10582 46.7868 8.10582C46.9997 8.10582 47.1786 8.18248 47.3234 8.33579C47.4767 8.4891 47.5533 8.67647 47.5533 8.89792C47.5533 9.11936 47.4767 9.30674 47.3234 9.46005C47.1786 9.61336 46.9997 9.69001 46.7868 9.69001ZM47.3489 10.827V17.8281H46.1863V10.827H47.3489ZM52.7415 10.6993C53.5932 10.6993 54.2831 10.9591 54.8111 11.4786C55.3392 11.9896 55.6032 12.7306 55.6032 13.7016V17.8281H54.4534V13.8677C54.4534 13.1693 54.2788 12.6369 53.9296 12.2707C53.5804 11.8959 53.1034 11.7086 52.4987 11.7086C51.8855 11.7086 51.3958 11.9002 51.0295 12.2835C50.6718 12.6667 50.4929 13.2246 50.4929 13.9571V17.8281H49.3303V10.827H50.4929V11.8236C50.7229 11.4658 51.0338 11.189 51.4256 10.9931C51.8259 10.7972 52.2645 10.6993 52.7415 10.6993ZM60.3896 10.7121C60.9943 10.7121 61.5224 10.8441 61.9738 11.1081C62.4337 11.3721 62.7744 11.7043 62.9958 12.1046V10.827H64.1712V17.9814C64.1712 18.6202 64.0349 19.1866 63.7624 19.6806C63.4898 20.1831 63.0981 20.5749 62.587 20.856C62.0845 21.137 61.4968 21.2776 60.824 21.2776C59.9041 21.2776 59.1376 21.0604 58.5244 20.626C57.9111 20.1916 57.5491 19.5997 57.4384 18.8502H58.5882C58.716 19.276 58.98 19.6167 59.3803 19.8722C59.7806 20.1363 60.2618 20.2683 60.824 20.2683C61.4628 20.2683 61.9823 20.0681 62.3826 19.6678C62.7914 19.2675 62.9958 18.7054 62.9958 17.9814V16.5122C62.7659 16.9211 62.4252 17.2617 61.9738 17.5343C61.5224 17.8068 60.9943 17.9431 60.3896 17.9431C59.7679 17.9431 59.2015 17.7898 58.6904 17.4832C58.1879 17.1766 57.7919 16.7464 57.5023 16.1928C57.2127 15.6392 57.0679 15.009 57.0679 14.302C57.0679 13.5866 57.2127 12.9606 57.5023 12.424C57.7919 11.8789 58.1879 11.4573 58.6904 11.1592C59.2015 10.8611 59.7679 10.7121 60.3896 10.7121ZM62.9958 14.3148C62.9958 13.7867 62.8894 13.3268 62.6765 12.935C62.4635 12.5432 62.1739 12.2451 61.8077 12.0407C61.45 11.8278 61.0539 11.7213 60.6196 11.7213C60.1852 11.7213 59.7891 11.8236 59.4314 12.028C59.0737 12.2324 58.7884 12.5305 58.5755 12.9223C58.3625 13.314 58.2561 13.774 58.2561 14.302C58.2561 14.8386 58.3625 15.3071 58.5755 15.7074C58.7884 16.0991 59.0737 16.4015 59.4314 16.6144C59.7891 16.8188 60.1852 16.9211 60.6196 16.9211C61.0539 16.9211 61.45 16.8188 61.8077 16.6144C62.1739 16.4015 62.4635 16.0991 62.6765 15.7074C62.8894 15.3071 62.9958 14.8429 62.9958 14.3148Z" fill="#FB471D"/>
</svg>
