<svg width="67" height="26" viewBox="0 0 67 26" fill="none" xmlns="http://www.w3.org/2000/svg">
<rect x="0.798828" y="0.763672" width="65.8763" height="24.8386" rx="5.3997" fill="#F7EDD0"/>
<path d="M17.2818 8.92347V17.8281H16.1192V13.791H11.5838V17.8281H10.4212V8.92347H11.5838V12.8328H16.1192V8.92347H17.2818ZM25.6547 14.0593C25.6547 14.2807 25.642 14.515 25.6164 14.762H20.0207C20.0632 15.4518 20.2975 15.9927 20.7233 16.3845C21.1577 16.7677 21.6815 16.9594 22.2947 16.9594C22.7972 16.9594 23.2146 16.8444 23.5468 16.6144C23.8874 16.376 24.1259 16.0608 24.2622 15.669H25.5142C25.3268 16.3419 24.9521 16.8912 24.3899 17.3171C23.8278 17.7344 23.1294 17.9431 22.2947 17.9431C21.6304 17.9431 21.0342 17.7941 20.5061 17.496C19.9866 17.1979 19.5778 16.7763 19.2797 16.2312C18.9816 15.6776 18.8325 15.0388 18.8325 14.3148C18.8325 13.5909 18.9773 12.9563 19.2669 12.4112C19.5565 11.8661 19.961 11.4488 20.4806 11.1592C21.0086 10.8611 21.6134 10.7121 22.2947 10.7121C22.9591 10.7121 23.5468 10.8569 24.0578 11.1464C24.5688 11.436 24.9606 11.8363 25.2331 12.3474C25.5142 12.8499 25.6547 13.4205 25.6547 14.0593ZM24.4538 13.8166C24.4538 13.3737 24.3559 12.9947 24.16 12.6795C23.9641 12.3559 23.6958 12.1131 23.3551 11.9513C23.0229 11.781 22.6525 11.6958 22.2436 11.6958C21.656 11.6958 21.1534 11.8832 20.7361 12.2579C20.3273 12.6327 20.0931 13.1522 20.0334 13.8166H24.4538ZM26.7549 14.302C26.7549 13.5866 26.8997 12.9606 27.1893 12.424C27.4789 11.8789 27.875 11.4573 28.3775 11.1592C28.8885 10.8611 29.4549 10.7121 30.0766 10.7121C30.6899 10.7121 31.2222 10.8441 31.6736 11.1081C32.125 11.3721 32.4614 11.7043 32.6829 12.1046V10.827H33.8582V17.8281H32.6829V16.525C32.4529 16.9338 32.108 17.2745 31.648 17.5471C31.1966 17.8111 30.6686 17.9431 30.0639 17.9431C29.4421 17.9431 28.88 17.7898 28.3775 17.4832C27.875 17.1766 27.4789 16.7464 27.1893 16.1928C26.8997 15.6392 26.7549 15.009 26.7549 14.302ZM32.6829 14.3148C32.6829 13.7867 32.5764 13.3268 32.3635 12.935C32.1505 12.5432 31.861 12.2451 31.4947 12.0407C31.137 11.8278 30.741 11.7213 30.3066 11.7213C29.8722 11.7213 29.4762 11.8236 29.1185 12.028C28.7607 12.2324 28.4754 12.5305 28.2625 12.9223C28.0496 13.314 27.9431 13.774 27.9431 14.302C27.9431 14.8386 28.0496 15.3071 28.2625 15.7074C28.4754 16.0991 28.7607 16.4015 29.1185 16.6144C29.4762 16.8188 29.8722 16.9211 30.3066 16.9211C30.741 16.9211 31.137 16.8188 31.4947 16.6144C31.861 16.4015 32.1505 16.0991 32.3635 15.7074C32.5764 15.3071 32.6829 14.8429 32.6829 14.3148ZM36.9855 8.37411V17.8281H35.8229V8.37411H36.9855ZM40.385 11.7852V15.9118C40.385 16.2525 40.4574 16.4952 40.6022 16.64C40.747 16.7763 40.9982 16.8444 41.356 16.8444H42.2119V17.8281H41.1643C40.517 17.8281 40.0316 17.6791 39.7079 17.381C39.3842 17.0829 39.2224 16.5931 39.2224 15.9118V11.7852H38.3153V10.827H39.2224V9.064H40.385V10.827H42.2119V11.7852H40.385ZM47.0955 10.6993C47.6236 10.6993 48.1006 10.8143 48.5264 11.0442C48.9523 11.2657 49.2844 11.6021 49.5229 12.0535C49.7699 12.5049 49.8934 13.0543 49.8934 13.7016V17.8281H48.7436V13.8677C48.7436 13.1693 48.569 12.6369 48.2198 12.2707C47.8706 11.8959 47.3936 11.7086 46.7889 11.7086C46.1757 11.7086 45.686 11.9002 45.3197 12.2835C44.962 12.6667 44.7831 13.2246 44.7831 13.9571V17.8281H43.6206V8.37411H44.7831V11.8236C45.0131 11.4658 45.3282 11.189 45.7285 10.9931C46.1374 10.7972 46.593 10.6993 47.0955 10.6993ZM57.8226 10.827L53.6067 21.1243H52.4057L53.7855 17.7515L50.9621 10.827H52.2524L54.4498 16.4995L56.6217 10.827H57.8226Z" fill="#DAA31A"/>
</svg>
