<svg width="315" height="150" viewBox="0 0 315 150" fill="none" xmlns="http://www.w3.org/2000/svg">
<rect width="315" height="150" fill="#6C5FBC"/>
<path d="M93.0158 38.3734C93.0158 36.7254 93.3838 35.2534 94.1198 33.9574C94.8718 32.6454 95.8878 31.6294 97.1678 30.9094C98.4638 30.1734 99.9118 29.8054 101.512 29.8054C103.384 29.8054 105.024 30.2854 106.432 31.2454C107.84 32.2054 108.824 33.5334 109.384 35.2294H105.52C105.136 34.4294 104.592 33.8294 103.888 33.4294C103.2 33.0294 102.4 32.8294 101.488 32.8294C100.512 32.8294 99.6398 33.0614 98.8718 33.5254C98.1198 33.9734 97.5278 34.6134 97.0958 35.4454C96.6798 36.2774 96.4718 37.2534 96.4718 38.3734C96.4718 39.4774 96.6798 40.4534 97.0958 41.3014C97.5278 42.1334 98.1198 42.7814 98.8718 43.2454C99.6398 43.6934 100.512 43.9174 101.488 43.9174C102.4 43.9174 103.2 43.7174 103.888 43.3174C104.592 42.9014 105.136 42.2934 105.52 41.4934H109.384C108.824 43.2054 107.84 44.5414 106.432 45.5014C105.04 46.4454 103.4 46.9174 101.512 46.9174C99.9118 46.9174 98.4638 46.5574 97.1678 45.8374C95.8878 45.1014 94.8718 44.0854 94.1198 42.7894C93.3838 41.4934 93.0158 40.0214 93.0158 38.3734ZM117.626 46.9894C116.346 46.9894 115.194 46.7094 114.17 46.1494C113.146 45.5734 112.338 44.7654 111.746 43.7254C111.17 42.6854 110.882 41.4854 110.882 40.1254C110.882 38.7654 111.178 37.5654 111.77 36.5254C112.378 35.4854 113.202 34.6854 114.242 34.1254C115.282 33.5494 116.442 33.2614 117.722 33.2614C119.002 33.2614 120.162 33.5494 121.202 34.1254C122.242 34.6854 123.058 35.4854 123.65 36.5254C124.258 37.5654 124.562 38.7654 124.562 40.1254C124.562 41.4854 124.25 42.6854 123.626 43.7254C123.018 44.7654 122.186 45.5734 121.13 46.1494C120.09 46.7094 118.922 46.9894 117.626 46.9894ZM117.626 44.0614C118.234 44.0614 118.802 43.9174 119.33 43.6294C119.874 43.3254 120.306 42.8774 120.626 42.2854C120.946 41.6934 121.106 40.9734 121.106 40.1254C121.106 38.8614 120.77 37.8934 120.098 37.2214C119.442 36.5334 118.634 36.1894 117.674 36.1894C116.714 36.1894 115.906 36.5334 115.25 37.2214C114.61 37.8934 114.29 38.8614 114.29 40.1254C114.29 41.3894 114.602 42.3654 115.226 43.0534C115.866 43.7254 116.666 44.0614 117.626 44.0614ZM133.862 33.2854C135.446 33.2854 136.726 33.7894 137.702 34.7974C138.678 35.7894 139.166 37.1814 139.166 38.9734V46.7734H135.806V39.4294C135.806 38.3734 135.542 37.5654 135.014 37.0054C134.486 36.4294 133.766 36.1414 132.854 36.1414C131.926 36.1414 131.19 36.4294 130.646 37.0054C130.118 37.5654 129.854 38.3734 129.854 39.4294V46.7734H126.494V33.4774H129.854V35.1334C130.302 34.5574 130.87 34.1094 131.558 33.7894C132.262 33.4534 133.03 33.2854 133.862 33.2854ZM145.741 36.2374V42.6694C145.741 43.1174 145.845 43.4454 146.053 43.6534C146.277 43.8454 146.645 43.9414 147.157 43.9414H148.717V46.7734H146.605C143.773 46.7734 142.357 45.3974 142.357 42.6454V36.2374H140.773V33.4774H142.357V30.1894H145.741V33.4774H148.717V36.2374H145.741ZM149.738 40.0774C149.738 38.7334 150.002 37.5414 150.53 36.5014C151.074 35.4614 151.802 34.6614 152.714 34.1014C153.642 33.5414 154.674 33.2614 155.81 33.2614C156.802 33.2614 157.666 33.4614 158.402 33.8614C159.154 34.2614 159.754 34.7654 160.202 35.3734V33.4774H163.586V46.7734H160.202V44.8294C159.77 45.4534 159.17 45.9734 158.402 46.3894C157.65 46.7894 156.778 46.9894 155.786 46.9894C154.666 46.9894 153.642 46.7014 152.714 46.1254C151.802 45.5494 151.074 44.7414 150.53 43.7014C150.002 42.6454 149.738 41.4374 149.738 40.0774ZM160.202 40.1254C160.202 39.3094 160.042 38.6134 159.722 38.0374C159.402 37.4454 158.97 36.9974 158.426 36.6934C157.882 36.3734 157.298 36.2134 156.674 36.2134C156.05 36.2134 155.474 36.3654 154.946 36.6694C154.418 36.9734 153.986 37.4214 153.65 38.0134C153.33 38.5894 153.17 39.2774 153.17 40.0774C153.17 40.8774 153.33 41.5814 153.65 42.1894C153.986 42.7814 154.418 43.2374 154.946 43.5574C155.49 43.8774 156.066 44.0374 156.674 44.0374C157.298 44.0374 157.882 43.8854 158.426 43.5814C158.97 43.2614 159.402 42.8134 159.722 42.2374C160.042 41.6454 160.202 40.9414 160.202 40.1254ZM165.471 40.1254C165.471 38.7494 165.751 37.5494 166.311 36.5254C166.871 35.4854 167.647 34.6854 168.639 34.1254C169.631 33.5494 170.767 33.2614 172.047 33.2614C173.695 33.2614 175.055 33.6774 176.127 34.5094C177.215 35.3254 177.943 36.4774 178.311 37.9654H174.687C174.495 37.3894 174.167 36.9414 173.703 36.6214C173.255 36.2854 172.695 36.1174 172.023 36.1174C171.063 36.1174 170.303 36.4694 169.743 37.1734C169.183 37.8614 168.903 38.8454 168.903 40.1254C168.903 41.3894 169.183 42.3734 169.743 43.0774C170.303 43.7654 171.063 44.1094 172.023 44.1094C173.383 44.1094 174.271 43.5014 174.687 42.2854H178.311C177.943 43.7254 177.215 44.8694 176.127 45.7174C175.039 46.5654 173.679 46.9894 172.047 46.9894C170.767 46.9894 169.631 46.7094 168.639 46.1494C167.647 45.5734 166.871 44.7734 166.311 43.7494C165.751 42.7094 165.471 41.5014 165.471 40.1254ZM184.153 36.2374V42.6694C184.153 43.1174 184.257 43.4454 184.465 43.6534C184.689 43.8454 185.057 43.9414 185.569 43.9414H187.129V46.7734H185.017C182.185 46.7734 180.769 45.3974 180.769 42.6454V36.2374H179.185V33.4774H180.769V30.1894H184.153V33.4774H187.129V36.2374H184.153ZM197.512 30.0214V40.3894C197.512 41.5254 197.808 42.3974 198.4 43.0054C198.992 43.5974 199.824 43.8934 200.896 43.8934C201.984 43.8934 202.824 43.5974 203.416 43.0054C204.008 42.3974 204.304 41.5254 204.304 40.3894V30.0214H207.688V40.3654C207.688 41.7894 207.376 42.9974 206.752 43.9894C206.144 44.9654 205.32 45.7014 204.28 46.1974C203.256 46.6934 202.112 46.9414 200.848 46.9414C199.6 46.9414 198.464 46.6934 197.44 46.1974C196.432 45.7014 195.632 44.9654 195.04 43.9894C194.448 42.9974 194.152 41.7894 194.152 40.3654V30.0214H197.512ZM215.49 46.9894C214.402 46.9894 213.426 46.7974 212.562 46.4134C211.698 46.0134 211.01 45.4774 210.498 44.8054C210.002 44.1334 209.73 43.3894 209.682 42.5734H213.066C213.13 43.0854 213.378 43.5094 213.81 43.8454C214.258 44.1814 214.81 44.3494 215.466 44.3494C216.106 44.3494 216.602 44.2214 216.954 43.9654C217.322 43.7094 217.506 43.3814 217.506 42.9814C217.506 42.5494 217.282 42.2294 216.834 42.0214C216.402 41.7974 215.706 41.5574 214.746 41.3014C213.754 41.0614 212.938 40.8134 212.298 40.5574C211.674 40.3014 211.13 39.9094 210.666 39.3814C210.218 38.8534 209.994 38.1414 209.994 37.2454C209.994 36.5094 210.202 35.8374 210.618 35.2294C211.05 34.6214 211.658 34.1414 212.442 33.7894C213.242 33.4374 214.178 33.2614 215.25 33.2614C216.834 33.2614 218.098 33.6614 219.042 34.4614C219.986 35.2454 220.506 36.3094 220.602 37.6534H217.386C217.338 37.1254 217.114 36.7094 216.714 36.4054C216.33 36.0854 215.81 35.9254 215.154 35.9254C214.546 35.9254 214.074 36.0374 213.738 36.2614C213.418 36.4854 213.258 36.7974 213.258 37.1974C213.258 37.6454 213.482 37.9894 213.93 38.2294C214.378 38.4534 215.074 38.6854 216.018 38.9254C216.978 39.1654 217.77 39.4134 218.394 39.6694C219.018 39.9254 219.554 40.3254 220.002 40.8694C220.466 41.3974 220.706 42.1014 220.722 42.9814C220.722 43.7494 220.506 44.4374 220.074 45.0454C219.658 45.6534 219.05 46.1334 218.25 46.4854C217.466 46.8214 216.546 46.9894 215.49 46.9894Z" fill="#F9F9F9"/>
<path d="M64.9545 110.995C54.2252 101.339 45.8069 89.1896 45.0046 74.5059C44.2806 61.2521 51.3231 51.2379 65.4214 57.1439C72.0953 59.9396 78.4587 67.6393 77.3128 75.0609C76.0362 83.3292 65.5027 79.3819 61.5536 75.1501C52.3299 65.2665 50.4373 48.8851 59.6569 38.5675C70.5751 26.3491 81.9329 40.3724 81.8255 40.4077" stroke="white" stroke-width="2.09329" stroke-miterlimit="1.5" stroke-linecap="round" stroke-linejoin="round"/>
<path d="M49.5719 111.824C50.8782 111.096 52.3767 111.015 53.8626 110.856C58.7416 110.333 64.2693 111.36 68.4869 114.471C65.0966 109.896 62.1476 102.906 64.1738 97.6141" stroke="white" stroke-width="2.09329" stroke-miterlimit="1.5" stroke-linecap="round" stroke-linejoin="round"/>
</svg>
