<svg width="23" height="19" viewBox="0 0 23 19" fill="none" xmlns="http://www.w3.org/2000/svg">
<path fill-rule="evenodd" clip-rule="evenodd" d="M0.115234 6.66375C0.115234 3.27625 3.08709 0.667969 6.5754 0.667969C8.37355 0.667969 9.95581 1.5111 11.0912 2.60205C12.2267 1.5111 13.8089 0.667969 15.6071 0.667969C19.0954 0.667969 22.0672 3.27625 22.0672 6.66375C22.0672 8.98423 21.0777 11.0249 19.7067 12.7498C18.3381 14.4717 16.5478 15.9331 14.8337 17.1207C14.179 17.5742 13.5166 17.9926 12.9105 18.3013C12.3413 18.5912 11.6868 18.8568 11.0912 18.8568C10.4957 18.8568 9.84122 18.5912 9.27202 18.3013C8.66583 17.9926 8.00349 17.5742 7.34878 17.1207C5.63466 15.9331 3.84441 14.4717 2.47579 12.7498C1.10481 11.0249 0.115234 8.98423 0.115234 6.66375ZM6.5754 2.54957C3.96719 2.54957 1.99684 4.46767 1.99684 6.66375C1.99684 8.42429 2.74419 10.0634 3.9488 11.579C5.15577 13.0976 6.77977 14.4374 8.4203 15.574C9.04107 16.004 9.62578 16.37 10.1259 16.6247C10.663 16.8982 10.9742 16.9752 11.0912 16.9752C11.2083 16.9752 11.5194 16.8982 12.0566 16.6247C12.5567 16.37 13.1414 16.004 13.7622 15.574C15.4027 14.4374 17.0267 13.0976 18.2337 11.579C19.4383 10.0634 20.1856 8.42429 20.1856 6.66375C20.1856 4.46767 18.2153 2.54957 15.6071 2.54957C14.1091 2.54957 12.7104 3.44449 11.8371 4.58035C11.659 4.81196 11.3834 4.94769 11.0912 4.94769C10.7991 4.94769 10.5235 4.81196 10.3454 4.58035C9.47206 3.44449 8.07334 2.54957 6.5754 2.54957Z" fill="#323142"/>
</svg>
